<?xml version="1.0" encoding="UTF-8"?>
<svg width="899px" height="163px" viewBox="0 0 899 163" version="1.1" xmlns="http://www.w3.org/2000/svg" xmlns:xlink="http://www.w3.org/1999/xlink">
    <!-- Generator: Sketch 55.2 (78181) - https://sketchapp.com -->
    <title>Group 10</title>
    <desc>Created with Sketch.</desc>
    <defs>
        <linearGradient x1="-12.8689738%" y1="50.628342%" x2="100%" y2="51.1126279%" id="linearGradient-1">
            <stop stop-color="#EEEAF5" offset="0%"></stop>
            <stop stop-color="#FFFFFF" offset="100%"></stop>
        </linearGradient>
        <path d="M5,0 L173,0 C175.761424,-5.07265313e-16 178,2.23857625 178,5 L178,96 C178,98.7614237 175.761424,101 173,101 L5,101 C2.23857625,101 3.38176876e-16,98.7614237 0,96 L0,5 C-3.38176876e-16,2.23857625 2.23857625,5.07265313e-16 5,0 Z" id="path-2"></path>
        <linearGradient x1="15.6390931%" y1="-7.26321745%" x2="67.1978698%" y2="92.370094%" id="linearGradient-4">
            <stop stop-color="#FFD1EE" offset="0%"></stop>
            <stop stop-color="#FF6BAF" offset="100%"></stop>
        </linearGradient>
        <linearGradient x1="7.26306395%" y1="69.0710034%" x2="83.9888926%" y2="83.7697165%" id="linearGradient-5">
            <stop stop-color="#EEEAF5" offset="0%"></stop>
            <stop stop-color="#FFFFFF" offset="100%"></stop>
        </linearGradient>
        <path d="M81.8745529,10.5692937 C78.3101912,10.6739051 75.3408917,13.751214 74.4013544,17.1612909 L74.4013544,17.1612909 C73.4605978,20.5725749 74.1600914,24.2062423 75.2384062,27.5595318 L75.2384062,27.5595318 C76.3179268,30.9152218 77.7743905,34.168506 78.3931067,37.6389375 L78.3931067,37.6389375 C79.204571,42.1920774 78.6053157,47.1881494 80.9920441,51.1486408 L80.9920441,51.1486408 C83.5514213,55.3922741 88.9906428,57.4198972 91.1909527,61.8584599 L91.1909527,61.8584599 C93.0392099,65.5876703 92.1346132,70.0521818 92.8056079,74.1621322 L92.8056079,74.1621322 C93.772231,80.1059517 98.3797349,85.2955434 104.207657,86.999463 L104.207657,86.999463 C106.219462,87.5872208 108.432649,87.9193083 110.638574,87.9183412 L110.638574,87.9183412 L110.786771,87.9183412 C114.921769,87.8880188 119.017417,86.6835833 121.698094,83.8033474 L121.698094,83.8033474 C128.861283,83.1466788 135.356027,77.6958461 137.194074,70.802494 L137.194074,70.802494 C139.030902,63.9103488 136.081689,56.0583535 130.155382,52.0713125 L130.155382,52.0713125 C127.666608,50.3946861 124.642501,49.2743833 122.935256,46.8204681 L122.935256,46.8204681 C120.201012,42.8889228 121.969901,37.2776578 119.969672,32.9321453 L119.969672,32.9321453 C118.058616,28.7786968 113.244676,26.8305217 108.745527,25.8118888 L108.745527,25.8118888 C104.245154,24.7956654 99.4114695,24.2340089 95.7509144,21.467484 L95.7509144,21.467484 C93.3295288,19.6354892 91.6739391,17.0106319 89.6537822,14.7526774 L89.6537822,14.7526774 C87.6723353,12.5378681 85.0352923,10.5551624 82.0482684,10.5661981 L82.0482684,10.5661981 C81.9911761,10.5661981 81.9328645,10.5678749 81.8745529,10.5692937" id="path-6"></path>
        <filter x="-196.0%" y="-109.9%" width="492.0%" height="423.2%" filterUnits="objectBoundingBox" id="filter-7">
            <feOffset dx="0" dy="40" in="SourceAlpha" result="shadowOffsetOuter1"></feOffset>
            <feGaussianBlur stdDeviation="35" in="shadowOffsetOuter1" result="shadowBlurOuter1"></feGaussianBlur>
            <feColorMatrix values="0 0 0 0 0   0 0 0 0 0   0 0 0 0 0  0 0 0 0.03 0" type="matrix" in="shadowBlurOuter1"></feColorMatrix>
        </filter>
        <linearGradient x1="50%" y1="0%" x2="50%" y2="100%" id="linearGradient-8">
            <stop stop-color="#C2E998" offset="0%"></stop>
            <stop stop-color="#02CC87" offset="100%"></stop>
        </linearGradient>
        <linearGradient x1="50%" y1="0%" x2="50%" y2="100%" id="linearGradient-9">
            <stop stop-color="#FFD1EE" offset="0%"></stop>
            <stop stop-color="#FF6BAF" offset="100%"></stop>
        </linearGradient>
        <circle id="path-10" cx="8.5" cy="86.5" r="8.5"></circle>
        <filter x="-152.9%" y="-111.8%" width="405.9%" height="405.9%" filterUnits="objectBoundingBox" id="filter-11">
            <feOffset dx="0" dy="7" in="SourceAlpha" result="shadowOffsetOuter1"></feOffset>
            <feGaussianBlur stdDeviation="7.5" in="shadowOffsetOuter1" result="shadowBlurOuter1"></feGaussianBlur>
            <feColorMatrix values="0 0 0 0 0.228579256   0 0 0 0 0.0374125352   0 0 0 0 0.577983469  0 0 0 0.15 0" type="matrix" in="shadowBlurOuter1"></feColorMatrix>
        </filter>
        <linearGradient x1="50%" y1="0%" x2="50%" y2="100%" id="linearGradient-12">
            <stop stop-color="#C2E998" offset="0%"></stop>
            <stop stop-color="#02CC87" offset="100%"></stop>
        </linearGradient>
        <linearGradient x1="50%" y1="0%" x2="50%" y2="100%" id="linearGradient-13">
            <stop stop-color="#72D0FF" offset="0%"></stop>
            <stop stop-color="#349EFA" offset="100%"></stop>
        </linearGradient>
        <linearGradient x1="0%" y1="18%" x2="96.5611761%" y2="79.7991527%" id="linearGradient-14">
            <stop stop-color="#EE9AE5" offset="0%"></stop>
            <stop stop-color="#5961F9" offset="100%"></stop>
        </linearGradient>
    </defs>
    <g id="Page-1" stroke="none" stroke-width="1" fill="none" fill-rule="evenodd">
        <g id="06-My-Account-Page-Design---2" transform="translate(-632.000000, -695.000000)">
            <g id="Group-10" transform="translate(632.000000, 695.000000)">
                <path d="M898,155.874642 C898,159.70429 892.46214,162.808833 885.630849,162.808833 L12.3691459,162.808833 C2.07976759,163.551976 0,162.307912 0,155.874642 L0,129.498284 C66.843358,103.071324 130.856323,82.0100852 266.438771,112.179257 C440.434587,150.895992 463.41162,0 694.405421,0 C785.286054,0 851.730064,50.1552651 898,72.2133771 L898,155.874642 Z" id="Path" fill="url(#linearGradient-1)"></path>
                <g id="Group-8" transform="translate(715.000000, 46.000000)">
                    <g id="Group-4" opacity="0.708682106" transform="translate(6.000000, 16.000000)">
                        <mask id="mask-3" fill="white">
                            <use xlink:href="#path-2"></use>
                        </mask>
                        <g id="Rectangle-2-Copy-103"></g>
                        <g id="Group-29" mask="url(#mask-3)">
                            <g transform="translate(97.973169, 81.468841) scale(-1, 1) rotate(44.000000) translate(-97.973169, -81.468841) translate(20.428614, 10.507634)">
                                <g id="Group-3" transform="translate(0.824686, 2.616655)">
                                    <path d="M7.89373145,60.329706 C4.32238094,60.420906 1.3584278,63.480906 0.429681912,66.880506 L0.429681912,66.880506 C-0.500281207,70.281306 0.214232341,73.910106 1.30730418,77.260506 L1.30730418,77.260506 C2.40159324,80.613306 3.87322336,83.865306 4.50618255,87.330906 L4.50618255,87.330906 C5.33633287,91.877706 4.75449731,96.861306 7.16095946,100.822506 L7.16095946,100.822506 C9.74148539,105.066906 15.1995412,107.110506 17.4209845,111.548106 L17.4209845,111.548106 C19.2869969,115.276506 18.3972023,119.728506 19.0849368,123.832506 L19.0849368,123.832506 C20.0757614,129.767706 24.7121875,134.963706 30.5585394,136.685706 L30.5585394,136.685706 C32.5767054,137.279706 34.7957143,137.619306 37.0062025,137.626506 L37.0062025,137.626506 L37.1547045,137.626506 C41.2981527,137.612106 45.3977807,136.425306 48.0732505,133.560906 L48.0732505,133.560906 C55.2488168,132.932106 61.7366485,127.516506 63.5527545,120.644106 L63.5527545,120.644106 C65.3676432,113.772906 62.3829972,105.926106 56.4295291,101.925306 L56.4295291,101.925306 C53.9293403,100.242906 50.8947879,99.113706 49.174843,96.658506 L49.174843,96.658506 C46.4202533,92.724906 48.1718461,87.131706 46.1512456,82.787706 L46.1512456,82.787706 C44.2207201,78.635706 39.3895373,76.673706 34.8772686,75.640506 L34.8772686,75.640506 C30.3637827,74.609706 25.5179932,74.031306 21.8395265,71.256906 L21.8395265,71.256906 C19.4062853,69.419706 17.7374641,66.794106 15.7046913,64.533306 L15.7046913,64.533306 C13.7108699,62.315706 11.0609619,60.327306 8.06779523,60.327306 L8.06779523,60.327306 C8.01058545,60.327306 7.95215845,60.328506 7.89373145,60.329706" id="Fill-1" fill="url(#linearGradient-4)" opacity="0.797316778"></path>
                                    <g id="Fill-1-Copy" transform="translate(105.848427, 49.242270) scale(-1, 1) rotate(29.000000) translate(-105.848427, -49.242270) ">
                                        <use fill="black" fill-opacity="1" filter="url(#filter-7)" xlink:href="#path-6"></use>
                                        <use fill="url(#linearGradient-5)" fill-rule="evenodd" xlink:href="#path-6"></use>
                                    </g>
                                </g>
                                <g id="Group-14" transform="translate(10.338658, 73.278157)">
                                    <path d="M24.9168821,36.3208432 C23.9850427,35.014154 23.0353011,33.6822793 22.0711861,32.3301462 C15.9182704,23.6712808 10.3776093,15.8108192 6.39552491,10.10205 C4.42634894,7.2513 2.82889897,4.94089615 1.7088618,3.32106923 C1.17678341,2.52751154 0.758895354,1.90235769 0.461271595,1.45772308 C0.18308449,1.02762692 0.0458131231,0.795011538 0.0640349859,0.781176617 C0.0834716396,0.769569231 0.255971941,0.974319231 0.571817563,1.37897308 C0.893737139,1.80785769 1.34563934,2.40756923 1.92023541,3.17083846 C3.08279026,4.76158846 4.73976498,7.0308 6.78061361,9.82945385 C10.4507688,14.8994453 15.3486426,21.730659 20.773017,29.3533547 C20.6567923,28.9196019 20.5348732,28.3799383 20.4276955,27.74835 C20.2697727,26.8481769 20.1762338,25.7602154 20.1653007,24.5486769 C20.1738043,23.33835 20.2746319,22.0056577 20.5248788,20.6281385 C20.7872736,19.2530423 21.1723623,17.9748692 21.6011835,16.8408692 C22.0470117,15.7141385 22.5244246,14.7327923 22.9969782,13.9489269 C23.9323672,12.3739269 24.7098333,11.5440231 24.7669285,11.58885 C24.856823,11.6542731 24.2202726,12.5762538 23.4112219,14.1742731 C23.0030522,14.9690423 22.5803049,15.9479654 22.1769944,17.0541 C21.7919057,18.1687154 21.435972,19.4153885 21.1808659,20.7492923 C20.9391225,22.0880423 20.8225026,23.3783308 20.7811997,24.5559462 C20.7569039,25.7347731 20.7994215,26.7985038 20.89539,27.6865615 C20.9956807,28.672686 21.1209588,29.4464279 21.1943533,29.9455484 C21.6648081,30.6068941 22.1390497,31.2739486 22.6166272,31.9460885 C25.6827593,36.2797615 28.6055461,40.4074731 31.2659381,44.1644538 C33.9117525,47.9299154 36.2951722,51.3125308 38.468433,54.0227423 C40.629546,56.7390115 42.5598486,58.7853 43.9495694,60.1398 C44.6480741,60.8158385 45.1971596,61.3343769 45.5798187,61.6760308 C45.9564038,62.0213192 46.1483408,62.2127423 46.1337633,62.2309154 C46.117971,62.2490885 45.8993087,62.0928 45.4923537,61.7778 C45.0817544,61.4676462 44.5022992,60.9781846 43.7722099,60.3300115 C42.3181052,59.0251846 40.3222039,57.0128192 38.1015662,54.3171462 C35.8699954,51.6311654 33.4367693,48.2630885 30.7642294,44.5194346 C29.0377366,42.0989588 27.2018375,39.5249162 25.2876033,36.8406897 C24.781667,36.587944 23.94481,36.1371281 22.8486522,35.5803404 C21.020392,34.654725 18.4523241,33.4528788 15.4809457,32.5187827 C13.9928269,32.0596096 12.5496554,31.7191673 11.2243186,31.4768596 C9.89533736,31.2636288 8.68783525,31.1182442 7.66862573,31.0831096 C5.62899189,30.9886096 4.35832065,31.1230904 4.34608568,31.0104173 C4.33402484,30.9413596 5.59376295,30.6372635 7.67834406,30.6130327 C8.71820503,30.5863788 9.95850649,30.685725 11.3227166,30.8723019 C12.6832824,31.0855327 14.1641124,31.4150712 15.6801714,31.882725 C18.7110746,32.8374173 21.287646,34.1264942 23.0746033,35.1659942 C23.8352543,35.6113577 24.4570459,36.0074811 24.9168821,36.3208432 Z" id="Combined-Shape" fill="#FFFFFF" opacity="0.38999721"></path>
                                    <path d="M38.6847873,30.6693692 C38.7746818,30.7299462 38.2049449,31.6531385 37.4809295,33.2269269 C37.1140627,34.0132154 36.7362627,34.9727538 36.3766847,36.0546577 C36.0316841,37.1450423 35.7158384,38.3590038 35.4886725,39.6565615 C35.2760841,40.9553308 35.1764713,42.20685 35.1436719,43.3493308 C35.1278797,44.4893885 35.1691825,45.5216192 35.2590771,46.3818115 C35.4242886,48.1070423 35.6611728,49.1659269 35.555486,49.1925808 C35.4825986,49.2131769 35.0829324,48.1894269 34.7901678,46.4436 C34.6395337,45.5712923 34.5472096,44.5184654 34.5289748,43.3456962 C34.527773,42.1741385 34.6115935,40.88385 34.8314707,39.5451 C35.0634957,38.2111962 35.4084963,36.9633115 35.793585,35.8571769 C36.1956808,34.7558885 36.6293612,33.7915038 37.0581823,33.0173308 C37.9073211,31.4617154 38.6240477,30.6257538 38.6847873,30.6693692" id="Fill-8" fill="#E2E2E2"></path>
                                    <path d="M38.5543187,54.1913885 C38.4802165,54.2725615 37.6079967,53.5262538 36.0749306,52.5182538 C35.312042,52.0094077 34.3669347,51.4617923 33.2882004,50.9141769 C32.2021774,50.3811 30.978883,49.8589269 29.6535462,49.42035 C28.324565,48.9926769 27.0271683,48.6922154 25.8354585,48.4801962 C24.6413191,48.28635 23.5540813,48.1700423 22.6369142,48.1312731 C20.8037948,48.0404077 19.6570322,48.1276385 19.6460372,48.0173885 C19.6363808,47.9459077 20.7709954,47.6902731 22.6466325,47.6599846 C23.5832363,47.6406 24.7008438,47.7084462 25.9302122,47.8744269 C27.1583657,48.0585808 28.4958505,48.3481385 29.8612754,48.7879269 C31.2218411,49.2386192 32.4730757,49.7922923 33.5712467,50.3701962 C34.6609141,50.9602154 35.602377,51.5635615 36.3470438,52.1329846 C37.8412365,53.2621385 38.60534,54.1380808 38.5543187,54.1913885" id="Fill-12" fill="#E2E2E2"></path>
                                </g>
                                <g id="Group-17" transform="translate(27.505544, 0.751854)" opacity="0.89671689">
                                    <path d="M29.3629512,0.572035088 C25.5099762,0.580447368 21.5532579,2.45878947 18.8523151,5.30935088 L18.8523151,5.30935088 C14.9896895,9.38570175 13.2344989,15.0051053 12.2151614,20.5187544 L12.2151614,20.5187544 C11.1970303,26.0324035 10.780851,31.6878596 9.03531099,37.0176404 L9.03531099,37.0176404 C6.74572217,44.0094474 2.17016348,50.5650175 2.51275738,57.9113421 L2.51275738,57.9113421 C2.88068393,65.7792281 8.90623512,72.7001316 8.63481389,80.5728246 L8.63481389,80.5728246 C8.40440743,87.190886 3.80110346,92.7718333 1.64782841,99.0353772 L1.64782841,99.0353772 C-1.46688093,108.096605 1.03863855,118.825868 7.8482955,125.586939 L7.8482955,125.586939 C14.6567461,132.348009 25.4303593,137.353316 34.5139229,134.220342 L34.5139229,134.220342 C44.9473548,138.67164 58.0491589,135.899193 65.7695848,127.610693 L65.7695848,127.610693 C73.4888045,119.323395 75.2825972,106.101693 70.049596,96.0682456 L70.049596,96.0682456 C67.8504809,91.8524912 64.4957146,88.0116842 63.9661416,83.291193 L63.9661416,83.291193 C63.118101,75.7261491 69.7817937,69.185 70.2667329,61.591114 L70.2667329,61.591114 C70.7287522,54.3361228 65.5078141,47.9944649 60.027518,43.1934561 L60.027518,43.1934561 C54.5460156,38.3936491 48.2562811,33.9832105 45.2513466,27.3567368 L45.2513466,27.3567368 C43.2657495,22.9727368 42.9364251,18.0527544 41.8266139,13.3707193 L41.8266139,13.3707193 C40.7168026,8.68868421 38.4778791,3.83840351 34.1689164,1.6704386 L34.1689164,1.6704386 C32.6742902,0.919342105 31.0554134,0.575640351 29.4160292,0.572035088 L29.4160292,0.572035088 L29.3629512,0.572035088 Z" id="Fill-15" fill="url(#linearGradient-8)"></path>
                                </g>
                                <g id="Group-28" transform="translate(38.727376, 17.930502)" opacity="0.38999721">
                                    <path d="M29.7394453,101.625304 C29.4401758,101.027938 29.0794558,100.321758 28.6506407,99.53339 C27.965164,98.25563 27.0580216,96.78669 25.9701735,95.21853 C24.8582314,93.6661 23.5511271,92.02413 22.044042,90.41846 C20.5225004,88.82973 18.9503612,87.43944 17.4613466,86.24759 C15.9530567,85.07994 14.537529,84.09984 13.299093,83.35085 C10.8330631,81.83714 9.18743694,81.07847 9.26212861,80.89334 C9.31152149,80.76024 11.0884604,81.23577 13.726763,82.58734 C15.0495284,83.25647 16.5566136,84.18575 18.1468233,85.33767 C19.7201672,86.51379 21.3657934,87.92465 22.9367279,89.56541 C24.4920013,91.22069 25.8147667,92.9401 26.9074335,94.57481 C27.8649733,96.0537565 28.6483891,97.4569176 29.2334096,98.710288 C28.5236499,94.3840547 27.8934731,89.5463524 27.2365587,84.347043 C26.6455244,79.6372975 26.017356,74.6276399 25.3623003,69.4040588 C24.8343114,68.6662838 24.0253893,67.4576629 22.9635928,65.935925 C21.1083481,63.281185 18.4339044,59.689905 15.012544,56.160335 C13.2934308,54.404625 11.5490189,52.848565 9.89616452,51.515145 C8.21680663,50.218025 6.65671447,49.104825 5.27130444,48.286865 C2.52578318,46.614645 0.669333748,45.830565 0.744025419,45.638175 C0.787394776,45.511125 2.77395228,46.008435 5.7001792,47.524565 C7.17112323,48.263875 8.82397763,49.328675 10.5864601,50.610065 C12.3212344,51.927755 14.1355192,53.498335 15.8943876,55.293975 C19.3940538,58.905825 22.0046481,62.650775 23.692439,65.455555 C24.3171397,66.4960783 24.8223575,67.4061653 25.2042524,68.1437556 C24.9017971,65.7319477 24.5938562,63.2765695 24.2814189,60.785923 C22.2177603,44.061303 20.4191367,28.914523 19.1770865,17.943453 C18.5578685,12.457313 18.0759867,8.015403 17.7711965,4.942003 C17.6181991,3.405303 17.5097757,2.211033 17.4507452,1.400333 C17.3917146,0.588423 17.3796676,0.158873 17.4218322,0.155178164 C17.4639969,0.149193 17.5579638,0.566643 17.6977095,1.368873 C17.8362506,2.171103 18.021775,3.355693 18.2470547,4.882713 C18.6988189,7.936753 19.3120134,12.362933 20.0420643,17.834553 C21.3462431,27.5941509 23.0269081,40.6829299 24.8380299,55.2612872 C24.9889902,54.6395615 25.1922243,53.915898 25.4584151,53.110288 C25.9053604,51.726048 26.5860184,50.128848 27.4750902,48.420328 C28.3906655,46.727538 29.5291112,44.934318 30.9109071,43.190708 C32.3083641,41.461618 33.8058117,39.958798 35.2538663,38.695558 C36.7236057,37.455308 38.1294957,36.443748 39.3787741,35.706858 C41.8676933,34.216138 43.5807829,33.659538 43.637404,33.787798 C43.7229381,33.968088 42.1592318,34.801778 39.855837,36.438908 C38.6981161,37.249608 37.3873978,38.303518 36.0056019,39.551028 C34.6430812,40.820318 33.2215301,42.294098 31.8710565,43.966318 C30.5374487,45.651848 29.4086407,47.363998 28.4677666,48.974508 C27.553396,50.598328 26.8112981,52.112038 26.2727953,53.421258 C25.6978803,54.7927626 25.2943013,55.9161386 25.0125503,56.6674218 C25.1751097,57.9784502 25.3386479,59.3009014 25.5029892,60.633463 C26.5173502,68.993353 27.4835231,76.955153 28.3629573,84.206683 C29.215888,91.457003 29.9868988,97.972853 30.9675282,103.388813 C31.9252682,108.807193 33.0649185,113.117213 33.9720609,116.057513 C34.8840221,118.995393 35.5008307,120.588963 35.4044544,120.629361 C35.3659038,120.644623 35.1719464,120.263473 34.8358339,119.520533 C34.4936979,118.781223 34.049162,117.664393 33.5166826,116.211183 C32.463771,113.298713 31.1855797,108.986273 30.1109834,103.552163 C29.9841472,102.924424 29.8604487,102.28193 29.7394453,101.625304 Z M48.6833083,70.905516 C48.7760705,71.080966 47.3051265,71.963056 45.1354539,73.632856 C42.9621672,75.295396 40.1467731,77.840026 37.5915952,81.133646 C35.0484642,84.438156 33.2908006,87.809216 32.2246372,90.335696 C31.1524503,92.860966 30.6657497,94.511406 30.4754064,94.464216 C30.3356607,94.433966 30.5235946,92.695196 31.4114617,90.022306 C32.2908959,87.354256 33.985915,83.790806 36.618194,80.374976 C39.2601107,76.968826 42.2766905,74.435086 44.6306828,72.918956 C46.989494,71.390726 48.619459,70.778466 48.6833083,70.905516 Z" id="Combined-Shape" fill="#FFFFFF"></path>
                                </g>
                            </g>
                        </g>
                    </g>
                    <g id="Oval-Copy" opacity="0.61625744">
                        <use fill="black" fill-opacity="1" filter="url(#filter-11)" xlink:href="#path-10"></use>
                        <use fill="url(#linearGradient-9)" fill-rule="evenodd" xlink:href="#path-10"></use>
                    </g>
                    <circle id="Oval-Copy-3" fill="url(#linearGradient-12)" opacity="0.89671689" cx="126" cy="5" r="5"></circle>
                    <ellipse id="Oval-Copy-4" fill="url(#linearGradient-13)" opacity="0.89671689" cx="36.5" cy="41" rx="2.5" ry="2"></ellipse>
                    <ellipse id="Oval-Copy-14" fill="url(#linearGradient-14)" opacity="0.89671689" cx="128.5" cy="31" rx="2.5" ry="2"></ellipse>
                </g>
            </g>
        </g>
    </g>
</svg>