<?xml version="1.0" encoding="UTF-8"?>
<svg width="27px" height="23px" viewBox="0 0 27 23" version="1.1" xmlns="http://www.w3.org/2000/svg" xmlns:xlink="http://www.w3.org/1999/xlink">
    <!-- Generator: Sketch 54.1 (76490) - https://sketchapp.com -->
    <title>Office Hour:</title>
    <desc>Created with Sketch.</desc>
    <g id="Page-1" stroke="none" stroke-width="1" fill="none" fill-rule="evenodd">
        <g id="06-My-Account-Page-Design---9" transform="translate(-1149.000000, -380.000000)" fill="#1ABC9C" fill-rule="nonzero">
            <path d="M1163.82458,394.102605 C1163.82458,394.86135 1163.23134,395.476714 1162.50107,395.476714 C1161.76973,395.476714 1161.17703,394.860792 1161.17703,394.102605 L1161.17703,393.47943 C1161.17703,392.720686 1161.76973,392.105322 1162.50107,392.105322 C1163.23134,392.105322 1163.82458,392.720686 1163.82458,393.47943 L1163.82458,394.102605 Z M1164.73218,394.862465 L1173.85111,394.863023 C1174.42608,394.863023 1174.96989,394.724106 1175.45781,394.483093 L1175.45781,400.768399 C1175.45781,401.995779 1174.49057,403 1173.30838,403 L1151.69269,403 C1150.51051,403 1149.54327,401.995779 1149.54327,400.768399 L1149.54327,394.482535 C1150.03119,394.723548 1150.57499,394.862465 1151.1505,394.862465 L1160.2689,394.862465 C1160.56229,395.859991 1161.44624,396.591957 1162.50107,396.591957 C1163.55537,396.591957 1164.43932,395.859433 1164.73218,394.862465 Z M1173.76084,383.575025 C1174.99246,383.575025 1176,384.579246 1176,385.807743 L1176,390.958837 C1176,392.191239 1175.0376,393.190438 1173.85058,393.190438 L1164.83374,393.190438 C1164.80311,392.548295 1164.53819,391.971426 1164.11798,391.554116 C1164.10616,391.540727 1164.0895,391.530685 1164.07607,391.517853 C1163.9831,391.429147 1163.88692,391.345462 1163.78106,391.273492 C1163.74237,391.247271 1163.69938,391.229418 1163.66015,391.205429 C1163.5731,391.153544 1163.48766,391.099985 1163.39416,391.059817 C1163.31947,391.027458 1163.24101,391.009048 1163.16363,390.985058 C1163.09647,390.964416 1163.03252,390.937079 1162.96374,390.922573 C1162.81382,390.891331 1162.65906,390.874036 1162.5,390.874036 C1162.34148,390.874036 1162.18618,390.890773 1162.03572,390.922573 C1161.96641,390.937079 1161.903,390.964416 1161.83637,390.985058 C1161.75899,391.009048 1161.67946,391.027458 1161.60584,391.059259 C1161.5118,391.099428 1161.42582,391.153544 1161.33877,391.205429 C1161.29955,391.22886 1161.25656,391.246713 1161.21894,391.272935 C1161.11308,391.345462 1161.01636,391.429147 1160.9234,391.517853 C1160.90996,391.530127 1160.89492,391.540727 1160.88202,391.553001 C1160.46235,391.969752 1160.19689,392.548295 1160.16626,393.189322 L1151.14942,393.189322 C1149.9624,393.189322 1149,392.189565 1149,390.957721 L1149,385.806627 C1149,384.579246 1150.00754,383.575025 1151.23916,383.575025 L1156.39778,383.575025 C1156.70999,381.552079 1158.39729,380 1160.43225,380 L1164.56667,380 C1166.6011,380 1168.29001,381.552079 1168.60114,383.575025 L1173.76084,383.575025 Z M1158.46822,383.575025 L1166.53232,383.575025 C1166.25827,382.715301 1165.48609,382.088779 1164.56775,382.088779 L1160.43333,382.088779 C1159.51445,382.088779 1158.74227,382.715301 1158.46822,383.575025 Z" id="Office-Hour:"></path>
        </g>
    </g>
</svg>