<?xml version="1.0" encoding="UTF-8"?>
<svg width="27px" height="31px" viewBox="0 0 27 31" version="1.1" xmlns="http://www.w3.org/2000/svg" xmlns:xlink="http://www.w3.org/1999/xlink">
    <!-- Generator: Sketch 54.1 (76490) - https://sketchapp.com -->
    <title>Our Time</title>
    <desc>Created with Sketch.</desc>
    <g id="Page-1" stroke="none" stroke-width="1" fill="none" fill-rule="evenodd">
        <g id="06-My-Account-Page-Design---9" transform="translate(-1297.000000, -376.000000)" fill="#0088FF" fill-rule="nonzero">
            <path d="M1319.1344,381.10989 L1319.1344,377.362637 C1319.1344,376.632653 1318.55064,376.048666 1317.82093,376.048666 L1316.21558,376.048666 L1316.21558,379.309262 C1314.51294,378.530612 1312.56705,378.043956 1310.57252,378.043956 C1308.4807,378.043956 1306.53482,378.530612 1304.73488,379.357928 L1304.73488,376 L1303.12953,376 C1302.39982,376 1301.81606,376.583987 1301.81606,377.313972 L1301.81606,381.207221 C1298.84859,383.737834 1297,387.387755 1297,391.524333 C1297,395.660911 1298.84859,399.310832 1301.76741,401.792779 L1301.76741,405.686028 C1301.76741,406.416013 1302.35117,407 1303.08088,407 L1304.68623,407 L1304.68623,403.690738 C1306.43753,404.518053 1308.43205,405.00471 1310.52388,405.00471 C1312.56705,405.00471 1314.46429,404.566719 1316.16693,403.739403 L1316.16693,407 L1317.77229,407 C1318.50199,407 1319.08576,406.416013 1319.08576,405.686028 L1319.08576,401.938776 C1322.10187,399.456829 1323.99911,395.709576 1323.99911,391.524333 C1324.04776,387.339089 1322.10187,383.591837 1319.1344,381.10989 Z M1310.52388,401.452119 C1305.07541,401.452119 1300.59988,397.023548 1300.59988,391.524333 C1300.59988,386.073783 1305.02676,381.596546 1310.52388,381.596546 C1315.97235,381.596546 1320.44787,386.025118 1320.44787,391.524333 C1320.44787,396.974882 1315.97235,401.452119 1310.52388,401.452119 Z M1311.30223,382.813187 L1309.74553,382.813187 L1309.74553,385.78179 L1311.30223,385.78179 L1311.30223,382.813187 Z M1309.74553,400.235479 L1311.30223,400.235479 L1311.30223,397.266876 L1309.74553,397.266876 L1309.74553,400.235479 Z M1316.26423,390.745683 L1316.26423,392.302983 L1319.2317,392.302983 L1319.2317,390.745683 L1316.26423,390.745683 Z M1301.81606,392.302983 L1304.78353,392.302983 L1304.78353,390.745683 L1301.81606,390.745683 L1301.81606,392.302983 Z M1310.52388,391.135008 L1304.73488,384.857143 L1309.69688,391.572998 L1308.33476,392.254317 L1309.64823,394.152276 L1310.81576,393.081633 L1311.69141,394.298273 L1312.66435,393.519623 L1311.59411,392.351648 L1315.53452,388.604396 L1310.52388,391.135008 Z" id="Our-Time"></path>
        </g>
    </g>
</svg>