<?xml version="1.0" encoding="UTF-8"?>
<svg width="30px" height="29px" viewBox="0 0 30 29" version="1.1" xmlns="http://www.w3.org/2000/svg" xmlns:xlink="http://www.w3.org/1999/xlink">
    <!-- Generator: Sketch 55.2 (78181) - https://sketchapp.com -->
    <title>Your Time</title>
    <desc>Created with Sketch.</desc>
    <g id="Page-1" stroke="none" stroke-width="1" fill="none" fill-rule="evenodd">
        <g id="06-My-Account-Page-Design---9" transform="translate(-1416.000000, -376.000000)" fill="#F39C12">
            <path d="M1428.80708,404.999331 C1428.94187,404.880996 1429.01894,404.813079 1429.09626,404.745552 C1431.3387,402.788159 1432.49286,400.318284 1432.34428,397.342794 C1432.18154,394.083001 1430.62373,391.593748 1427.84893,389.877822 C1427.65008,389.754821 1427.48125,389.642642 1427.43026,389.387567 C1427.41389,389.305782 1427.26641,389.20799 1427.16708,389.192177 C1426.67879,389.114411 1426.28354,388.894978 1426.04483,388.458706 C1425.54191,387.539826 1425.31957,386.542466 1425.36487,385.502917 C1425.3958,384.792841 1425.6501,384.565243 1426.34631,384.44127 C1426.42869,384.426688 1426.51132,384.413338 1426.54206,384.408219 C1426.54206,383.77889 1426.54626,383.177299 1426.54102,382.575772 C1426.53339,381.697266 1426.6135,380.830295 1426.87104,379.986524 C1427.35371,378.4052 1428.45008,377.540432 1430.05267,377.288597 C1430.52912,377.213681 1431.01308,377.186333 1431.49258,377.137275 C1431.66043,376.317483 1432.04882,375.996306 1432.98057,376.000032 C1434.71413,376.006999 1436.31336,376.504059 1437.77974,377.422745 C1438.59391,377.932831 1439.28183,378.580499 1439.79601,379.400356 C1440.72362,380.879482 1440.80988,382.481026 1440.47792,384.142515 C1440.46336,384.215422 1440.45184,384.288976 1440.43469,384.385602 C1440.61387,384.410681 1440.78154,384.427531 1440.94654,384.458378 C1441.49107,384.560253 1441.77774,384.776121 1441.79547,385.314656 C1441.81611,385.941717 1441.72545,386.576683 1441.63609,387.201475 C1441.58484,387.56011 1441.46461,387.914792 1441.33299,388.254827 C1441.0559,388.970347 1440.64901,389.220044 1439.88745,389.187835 C1439.79084,389.183688 1439.69442,389.174874 1439.57872,389.166903 C1439.55393,389.233912 1439.52067,389.299366 1439.50527,389.368967 C1439.25472,390.496911 1438.67143,391.44139 1437.90197,392.281985 C1437.55953,392.655979 1437.19903,393.01416 1436.86902,393.398652 C1436.76826,393.516015 1436.69579,393.695333 1436.68951,393.849571 C1436.66764,394.388689 1436.69223,394.929493 1436.67534,395.468936 C1436.66602,395.76782 1436.75849,396.020303 1436.99882,396.168384 C1437.48233,396.466296 1437.96364,396.792917 1438.4896,396.991741 C1439.88796,397.520296 1441.31306,397.977501 1442.71977,398.484476 C1443.16323,398.644287 1443.59866,398.842787 1444.00962,399.07369 C1445.30355,399.800875 1445.94702,400.931994 1445.99439,402.40937 C1446.00403,402.71143 1445.99846,403.014007 1445.99782,403.316391 C1445.99549,404.359115 1445.36393,404.997905 1444.32916,404.998618 C1441.99995,405.000433 1439.67074,404.999939 1437.34159,404.999939 C1434.62419,404.999939 1431.90685,404.999525 1429.18944,404.999331 L1428.80708,404.999331 Z M1428.42488,397.752735 C1428.42488,394.885276 1426.11308,392.561148 1423.25649,392.556606 C1420.37246,392.55214 1418.04661,394.864798 1418.04383,397.740033 C1418.04098,400.627582 1420.35233,402.952034 1423.22743,402.953136 C1426.1068,402.954237 1428.42488,400.63484 1428.42488,397.752735 Z M1423.23377,390.509787 C1427.20356,390.507585 1430.47216,393.773664 1430.46757,397.737895 C1430.4629,401.757859 1427.21618,405.002292 1423.20142,404.998861 C1419.25596,404.995618 1416.0104,401.738028 1416.00003,397.770881 C1415.98957,393.779366 1419.24464,390.512056 1423.23377,390.509787 Z M1422.21301,396.732045 C1422.21301,396.036939 1422.2112,395.401065 1422.21353,394.765126 C1422.21592,394.091406 1422.62832,393.628045 1423.22591,393.622277 C1423.83029,393.61638 1424.25608,394.09497 1424.25627,394.781717 C1424.25653,395.730926 1424.25783,396.680071 1424.25517,397.629215 C1424.25304,398.35977 1423.84136,398.773879 1423.11545,398.777249 C1422.49081,398.780165 1421.8661,398.783146 1421.24153,398.777119 C1420.59767,398.770768 1420.14406,398.341819 1420.14302,397.751245 C1420.14205,397.168965 1420.60725,396.738331 1421.24664,396.732563 C1421.55608,396.729777 1421.86546,396.732045 1422.21301,396.732045 Z" id="Your-Time"></path>
        </g>
    </g>
</svg>